<svg xmlns="http://www.w3.org/2000/svg" viewBox="0 0 32 32" xml:space="preserve"><path d="M16 4c-2.45 0-3.78 2.086-4.967 3.478C10.319 8.315 8.835 9 7.735 9H6c-1.1 0-2 .9-2 2v10c0 1.1.9 2 2 2h1.735c1.1 0 2.584.685 3.298 1.522C12.226 25.92 13.546 28 16 28c1.1 0 2-.9 2-2V6c0-1.1-.9-2-2-2M8 21.017C7.912 21.013 6 21 6 21V11s1.912.005 2 0zM16 26c-1.389 0-2.25-1.375-3.445-2.776-.627-.735-1.558-1.347-2.555-1.744V10.52c.997-.397 1.928-1.009 2.555-1.744C13.742 7.384 14.605 6 16 6zm8.456-1.445-1.418-1.418a10.08 10.08 0 0 0 0-14.274l1.418-1.418c4.729 4.729 4.721 12.388 0 17.11m-3.582-13.688a7.26 7.26 0 0 1 0 10.266l-1.416-1.416a5.25 5.25 0 0 0 0-7.434z" style="fill:#fff"/></svg>